<svg width="38" height="20" viewBox="0 0 38 20" fill="none" xmlns="http://www.w3.org/2000/svg">
<path d="M37.4829 18.0622C37.4376 17.9707 37.3954 17.8948 37.3562 17.834C36.7073 16.7387 35.4673 15.3942 33.6368 13.8002L33.5982 13.7637L33.5788 13.7458L33.5592 13.7275H33.5396C32.7088 12.9852 32.1828 12.4861 31.9625 12.2306C31.5594 11.7439 31.4691 11.2512 31.6894 10.752C31.845 10.3749 32.4297 9.57835 33.442 8.3614C33.9744 7.71645 34.3962 7.19955 34.7076 6.81011C36.9536 4.01144 37.9274 2.22306 37.6287 1.44425L37.5127 1.26225C37.4347 1.15269 37.2335 1.05245 36.9093 0.961035C36.5844 0.869813 36.1691 0.854728 35.6627 0.915521L30.0545 0.95183C29.9637 0.921657 29.834 0.92447 29.665 0.961035C29.4961 0.997601 29.4117 1.01595 29.4117 1.01595L29.3141 1.06165L29.2366 1.11657C29.1717 1.15288 29.1003 1.21674 29.0223 1.30803C28.9448 1.39899 28.8799 1.50575 28.8281 1.6274C28.2175 3.09967 27.5233 4.46851 26.7442 5.73386C26.2638 6.48838 25.8227 7.14227 25.4198 7.69593C25.0174 8.2494 24.6799 8.65718 24.4075 8.91858C24.1347 9.18022 23.8884 9.38984 23.6673 9.54818C23.4465 9.70659 23.278 9.77352 23.1613 9.74904C23.0443 9.72455 22.9342 9.70026 22.8299 9.67597C22.6483 9.5664 22.5022 9.41739 22.392 9.22881C22.2814 9.04023 22.2069 8.80287 22.168 8.51693C22.1292 8.2308 22.1063 7.98469 22.0998 7.77776C22.0937 7.57109 22.0965 7.27875 22.1096 6.90159C22.1232 6.52424 22.1292 6.26892 22.1292 6.13506C22.1292 5.67262 22.1388 5.17074 22.1581 4.62929C22.1778 4.08784 22.1937 3.65883 22.207 3.34278C22.2202 3.02641 22.2264 2.6917 22.2264 2.33883C22.2264 1.98596 22.2034 1.70922 22.1581 1.50837C22.1134 1.30777 22.0447 1.11305 21.9542 0.924278C21.8632 0.735697 21.7299 0.589819 21.555 0.486259C21.3798 0.382827 21.1619 0.300747 20.9027 0.239761C20.2146 0.0938189 19.3383 0.0148707 18.2736 0.00259691C15.859 -0.0216949 14.3076 0.124439 13.6195 0.440808C13.3469 0.574476 13.1002 0.757112 12.8796 0.98814C12.6459 1.25592 12.6133 1.40206 12.782 1.4261C13.5611 1.53547 14.1126 1.79712 14.4372 2.21078L14.5541 2.42999C14.6451 2.58814 14.736 2.86813 14.8269 3.26959C14.9177 3.67104 14.9763 4.11513 15.002 4.60161C15.0668 5.48998 15.0668 6.25044 15.002 6.88305C14.937 7.51592 14.8757 8.00859 14.8171 8.36146C14.7585 8.71433 14.6709 9.00027 14.5541 9.21922C14.4372 9.43823 14.3593 9.57209 14.3203 9.62067C14.2814 9.66926 14.2489 9.69988 14.2231 9.71189C14.0544 9.7725 13.8789 9.80337 13.6973 9.80337C13.5154 9.80337 13.2948 9.7181 13.0352 9.54767C12.7757 9.37724 12.5063 9.14315 12.2272 8.845C11.948 8.54678 11.6332 8.13005 11.2825 7.59474C10.9322 7.05942 10.5686 6.42675 10.1921 5.69672L9.88065 5.16729C9.68592 4.82669 9.41992 4.33075 9.08237 3.67993C8.74462 3.02884 8.44608 2.39904 8.18656 1.79066C8.08282 1.53515 7.92697 1.34063 7.71929 1.20677L7.62182 1.15185C7.55703 1.10327 7.45302 1.05168 7.31033 0.996706C7.16744 0.941794 7.01834 0.902415 6.86243 0.878187L1.52679 0.914498C0.98156 0.914498 0.611615 1.03027 0.41682 1.26149L0.338862 1.37086C0.299917 1.43178 0.280273 1.52908 0.280273 1.663C0.280273 1.79686 0.319219 1.96115 0.397177 2.15568C1.17608 3.87145 2.02312 5.52617 2.9383 7.12009C3.85348 8.71402 4.64875 9.99796 5.32365 10.9708C5.99867 11.9443 6.68673 12.8631 7.38781 13.7268C8.08889 14.5907 8.55296 15.1444 8.78002 15.3876C9.00735 15.6313 9.18591 15.8135 9.3157 15.9351L9.80262 16.3731C10.1142 16.6652 10.5717 17.015 11.1754 17.4225C11.7792 17.8303 12.4477 18.2317 13.1812 18.6275C13.9148 19.0226 14.7682 19.3451 15.742 19.5944C16.7156 19.8441 17.6633 19.9442 18.5851 19.8959H20.8245C21.2787 19.8591 21.6228 19.7253 21.8567 19.4943L21.9342 19.4028C21.9863 19.3302 22.035 19.2173 22.08 19.0655C22.1256 18.9134 22.1483 18.7459 22.1483 18.5636C22.135 18.0405 22.1774 17.5691 22.2746 17.1493C22.3716 16.7297 22.4823 16.4134 22.606 16.2003C22.7296 15.9874 22.8692 15.8078 23.0245 15.6622C23.1801 15.5162 23.291 15.4278 23.3561 15.3974C23.4208 15.3668 23.4724 15.346 23.5113 15.3335C23.8229 15.2362 24.1896 15.3305 24.6119 15.6167C25.0339 15.9026 25.4297 16.2557 25.7999 16.6753C26.1699 17.0953 26.6145 17.5665 27.1337 18.0896C27.6532 18.6129 28.1074 19.0018 28.4967 19.2577L28.8861 19.4767C29.1461 19.6229 29.4836 19.7567 29.8991 19.8784C30.3139 20 30.6773 20.0304 30.9893 19.9696L35.9742 19.8967C36.4673 19.8967 36.8509 19.8202 37.1231 19.6684C37.3958 19.5163 37.5577 19.3488 37.61 19.1665C37.6621 18.9841 37.6649 18.7771 37.6199 18.5457C37.5737 18.3148 37.5282 18.1534 37.4829 18.0622Z" fill="white"/>
</svg>
